<svg width="16" height="22" viewBox="0 0 16 22" fill="none" xmlns="http://www.w3.org/2000/svg">
<path d="M3.41531 6.61074C3.39409 6.41976 3.56385 6.25 3.77605 6.25L12.6461 6.25C12.8583 6.25 13.0068 6.39854 13.0068 6.61074V15.4808C13.0068 15.693 12.8371 15.8627 12.6461 15.8415L11.8185 15.8627C11.6063 15.8627 11.4365 15.693 11.4578 15.502L11.4365 8.90252L4.20046 16.1386C4.05192 16.2871 3.83971 16.2871 3.69117 16.1386L3.09701 15.5444C2.96969 15.4171 2.94847 15.1837 3.09701 15.0351L10.3331 7.79907H3.75483C3.56385 7.82029 3.39409 7.65053 3.39409 7.43833L3.41531 6.61074Z" fill="white"/>
</svg>
